<svg width="570" height="164" viewBox="0 0 570 164" fill="none" xmlns="http://www.w3.org/2000/svg">
<path d="M82.5 48.2159C82.5 48.2159 56.25 25.7062 30 44.4643V127C56.25 108.242 82.5 127 82.5 127M82.5 48.2159C82.5 48.2159 108.75 25.7062 135 44.4643V127C108.75 108.242 82.5 127 82.5 127M82.5 48.2159V127" stroke="#D6B30E" stroke-width="8" stroke-linecap="round" stroke-linejoin="round"/>
<path d="M72.6 75H70.88C70.8 73.6933 70.6 72.6133 70.28 71.76C69.9867 70.88 69.56 70.1867 69 69.68C68.44 69.1467 67.76 68.7867 66.96 68.6C66.16 68.3867 65.2267 68.28 64.16 68.28C63.12 68.28 62.28 68.3067 61.64 68.36C61.0267 68.3867 60.5467 68.4533 60.2 68.56C59.88 68.64 59.6667 68.76 59.56 68.92C59.4533 69.08 59.4 69.28 59.4 69.52V90.48C59.4 91.3333 59.4533 92.0667 59.56 92.68C59.6933 93.2933 59.9467 93.8 60.32 94.2C60.6933 94.5733 61.24 94.8667 61.96 95.08C62.68 95.2667 63.6267 95.3733 64.8 95.4V97H48.04V95.4C49.24 95.3733 50.2 95.2667 50.92 95.08C51.64 94.8667 52.1867 94.5733 52.56 94.2C52.96 93.8 53.2133 93.2933 53.32 92.68C53.4533 92.0667 53.52 91.3333 53.52 90.48V69.52C53.52 69.28 53.4667 69.08 53.36 68.92C53.28 68.76 53.0933 68.64 52.8 68.56C52.5067 68.4533 52.08 68.3867 51.52 68.36C50.9867 68.3067 50.28 68.28 49.4 68.28C48.44 68.28 47.52 68.3333 46.64 68.44C45.76 68.52 44.9867 68.7867 44.32 69.24C43.6533 69.6667 43.1067 70.3333 42.68 71.24C42.28 72.12 42.0667 73.3733 42.04 75H40.48L40.88 66.2H72.2L72.6 75Z" fill="#FFC428"/>
<path d="M93.32 97V95.4C94.2267 95.3733 94.9467 95.2933 95.48 95.16C96.04 95.0267 96.4667 94.8 96.76 94.48C97.08 94.16 97.2933 93.7067 97.4 93.12C97.5067 92.5333 97.56 91.7733 97.56 90.84V72.36C97.56 71.4267 97.52 70.68 97.44 70.12C97.36 69.5333 97.1867 69.08 96.92 68.76C96.68 68.4133 96.3333 68.1867 95.88 68.08C95.4533 67.9467 94.88 67.8533 94.16 67.8V66.2H107C111.027 66.2 114.12 66.8533 116.28 68.16C118.467 69.44 119.56 71.28 119.56 73.68C119.56 76.8533 117.28 79.0933 112.72 80.4V80.56C114.187 80.56 115.507 80.7733 116.68 81.2C117.88 81.6 118.893 82.1733 119.72 82.92C120.547 83.6667 121.187 84.5467 121.64 85.56C122.093 86.5733 122.32 87.68 122.32 88.88C122.32 90.24 121.987 91.4267 121.32 92.44C120.68 93.4533 119.747 94.3067 118.52 95C116.147 96.3333 112.88 97 108.72 97H93.32ZM109 94.56C113.293 94.56 115.44 92.6267 115.44 88.76C115.44 86.3867 114.667 84.6533 113.12 83.56C112.32 83 111.28 82.6 110 82.36C108.747 82.12 107.2 82 105.36 82H103.44V90C103.44 91.6533 103.867 92.8267 104.72 93.52C105.573 94.2133 107 94.56 109 94.56ZM105.8 79.6C107 79.6 108.04 79.4933 108.92 79.28C109.8 79.04 110.547 78.7067 111.16 78.28C112.44 77.4 113.08 76.0267 113.08 74.16C113.08 72.2133 112.6 70.8133 111.64 69.96C110.68 69.08 109.133 68.64 107 68.64H104.16C103.68 68.64 103.44 68.8667 103.44 69.32V79.6H105.8Z" fill="#FFC428"/>
<path d="M182.048 93.816H168.464C166.96 97.208 166.208 99.56 166.208 100.872C166.208 101.832 166.56 102.44 167.264 102.696C168 102.952 169.088 103.08 170.528 103.08V105H157.376V103.08C158.144 102.984 158.8 102.856 159.344 102.696C159.92 102.536 160.416 102.312 160.832 102.024C161.28 101.736 161.664 101.368 161.984 100.92C162.304 100.44 162.608 99.864 162.896 99.192L175.52 67.56H179.072L190.544 95.592C191.216 97.224 191.776 98.504 192.224 99.432C192.704 100.36 193.2 101.08 193.712 101.592C194.256 102.072 194.864 102.408 195.536 102.6C196.24 102.792 197.136 102.936 198.224 103.032V105H180.08V103.032C181.616 102.968 182.72 102.808 183.392 102.552C184.064 102.296 184.4 101.784 184.4 101.016C184.4 100.568 184.288 99.992 184.064 99.288C183.84 98.584 183.536 97.72 183.152 96.696L182.048 93.816ZM169.568 90.936H180.992L175.472 76.392H175.28L169.568 90.936ZM219.104 101.928H218.912C216.704 104.296 213.84 105.48 210.32 105.48C208.496 105.48 206.816 105.16 205.28 104.52C203.776 103.88 202.464 102.984 201.344 101.832C200.256 100.68 199.408 99.32 198.8 97.752C198.192 96.152 197.888 94.392 197.888 92.472C197.888 90.552 198.192 88.776 198.8 87.144C199.44 85.512 200.288 84.104 201.344 82.92C202.432 81.704 203.712 80.76 205.184 80.088C206.688 79.416 208.304 79.08 210.032 79.08C211.632 79.08 213.04 79.32 214.256 79.8C215.504 80.28 216.592 81.096 217.52 82.248H217.712V78.168C217.712 76.28 217.68 74.664 217.616 73.32C217.584 71.944 217.52 71.048 217.424 70.632C217.264 69.96 216.768 69.48 215.936 69.192C215.136 68.872 213.888 68.712 212.192 68.712V67.08L224.336 65.16V92.616C224.336 95.016 224.352 96.872 224.384 98.184C224.448 99.464 224.544 100.44 224.672 101.112C224.736 101.528 224.832 101.864 224.96 102.12C225.088 102.376 225.28 102.584 225.536 102.744C225.792 102.872 226.128 102.968 226.544 103.032C226.992 103.064 227.552 103.08 228.224 103.08V104.952L219.104 105.48V101.928ZM217.616 91.224C217.616 90.008 217.488 88.888 217.232 87.864C216.976 86.808 216.592 85.88 216.08 85.08C215.504 84.152 214.768 83.448 213.872 82.968C212.976 82.488 212.016 82.248 210.992 82.248C209.104 82.248 207.664 83.112 206.672 84.84C205.68 86.568 205.184 89.08 205.184 92.376C205.184 95.704 205.68 98.264 206.672 100.056C207.664 101.848 209.088 102.744 210.944 102.744C212 102.744 213.008 102.472 213.968 101.928C214.928 101.384 215.712 100.648 216.32 99.72C216.768 99.016 217.088 98.152 217.28 97.128C217.504 96.072 217.616 94.728 217.616 93.096V91.224ZM241.728 97.08C241.728 98.424 241.76 99.48 241.824 100.248C241.888 101.016 242.064 101.608 242.352 102.024C242.64 102.408 243.056 102.664 243.6 102.792C244.144 102.92 244.896 103.016 245.856 103.08V105H230.688V103.08C231.648 103.016 232.416 102.92 232.992 102.792C233.568 102.664 234 102.408 234.288 102.024C234.576 101.64 234.768 101.096 234.864 100.392C234.96 99.656 235.008 98.68 235.008 97.464V91.512C235.008 89.688 234.976 88.168 234.912 86.952C234.88 85.736 234.8 84.904 234.672 84.456C234.576 84.04 234.448 83.72 234.288 83.496C234.16 83.24 233.936 83.048 233.616 82.92C233.328 82.76 232.944 82.664 232.464 82.632C231.984 82.568 231.36 82.536 230.592 82.536V80.904L239.856 79.08L240.432 83.256H240.72C242.064 81.752 243.408 80.68 244.752 80.04C246.128 79.4 247.712 79.08 249.504 79.08C251.616 79.08 253.36 79.448 254.736 80.184C256.112 80.92 257.152 81.976 257.856 83.352H258.048C259.2 82.008 260.576 80.968 262.176 80.232C263.776 79.464 265.488 79.08 267.312 79.08C269.232 79.08 270.896 79.32 272.304 79.8C273.744 80.28 274.864 80.968 275.664 81.864C276.304 82.6 276.768 83.56 277.056 84.744C277.376 85.928 277.536 87.576 277.536 89.688V97.08C277.536 98.392 277.568 99.432 277.632 100.2C277.728 100.968 277.92 101.56 278.208 101.976C278.496 102.392 278.912 102.664 279.456 102.792C280 102.92 280.752 103.016 281.712 103.08V105H266.544V103.08C267.504 103.048 268.256 102.968 268.8 102.84C269.376 102.68 269.808 102.408 270.096 102.024C270.416 101.608 270.608 101.048 270.672 100.344C270.768 99.64 270.816 98.68 270.816 97.464V91.176C270.816 89.512 270.72 88.104 270.528 86.952C270.336 85.8 270.032 84.872 269.616 84.168C269.2 83.464 268.64 82.968 267.936 82.68C267.264 82.36 266.432 82.2 265.44 82.2C264.32 82.2 263.392 82.472 262.656 83.016C261.952 83.56 261.36 84.264 260.88 85.128C260.048 86.632 259.632 88.504 259.632 90.744V97.08C259.632 98.392 259.664 99.432 259.728 100.2C259.792 100.968 259.968 101.56 260.256 101.976C260.544 102.392 260.96 102.664 261.504 102.792C262.08 102.92 262.864 103.016 263.856 103.08V105H248.64V103.08C249.6 103.016 250.352 102.92 250.896 102.792C251.472 102.664 251.904 102.408 252.192 102.024C252.512 101.64 252.704 101.096 252.768 100.392C252.864 99.656 252.912 98.68 252.912 97.464V91.176C252.912 89.512 252.816 88.104 252.624 86.952C252.432 85.8 252.112 84.872 251.664 84.168C251.248 83.464 250.688 82.968 249.984 82.68C249.28 82.36 248.4 82.2 247.344 82.2C246.288 82.2 245.408 82.456 244.704 82.968C244.032 83.48 243.472 84.168 243.024 85.032C242.608 85.8 242.288 86.68 242.064 87.672C241.84 88.664 241.728 89.688 241.728 90.744V97.08ZM294.789 97.128C294.789 98.408 294.837 99.432 294.933 100.2C295.029 100.968 295.221 101.56 295.509 101.976C295.797 102.392 296.213 102.68 296.757 102.84C297.301 102.968 298.037 103.048 298.965 103.08V105H283.845V103.08C284.741 103.048 285.461 102.952 286.005 102.792C286.581 102.6 287.013 102.312 287.301 101.928C287.621 101.512 287.829 100.952 287.925 100.248C288.053 99.512 288.117 98.584 288.117 97.464V91.56C288.117 89.704 288.085 88.184 288.021 87C287.957 85.784 287.877 84.952 287.781 84.504C287.621 83.704 287.253 83.176 286.677 82.92C286.133 82.664 285.125 82.536 283.653 82.536V80.904L294.789 79.08V97.128ZM287.733 68.904C287.733 67.848 288.085 66.968 288.789 66.264C289.525 65.528 290.405 65.16 291.429 65.16C292.485 65.16 293.365 65.528 294.069 66.264C294.805 66.968 295.173 67.848 295.173 68.904C295.173 69.928 294.805 70.808 294.069 71.544C293.365 72.248 292.485 72.6 291.429 72.6C290.405 72.6 289.525 72.248 288.789 71.544C288.085 70.808 287.733 69.928 287.733 68.904ZM312.133 97.176C312.133 98.488 312.165 99.528 312.229 100.296C312.325 101.032 312.501 101.608 312.757 102.024C313.045 102.408 313.461 102.664 314.005 102.792C314.581 102.92 315.349 103.016 316.309 103.08V105H301.189V103.08C302.117 103.016 302.853 102.92 303.397 102.792C303.973 102.664 304.405 102.408 304.693 102.024C305.013 101.64 305.221 101.096 305.317 100.392C305.413 99.688 305.461 98.728 305.461 97.512V91.512C305.461 89.624 305.429 88.104 305.365 86.952C305.301 85.768 305.221 84.968 305.125 84.552C305.029 84.136 304.901 83.8 304.741 83.544C304.581 83.256 304.341 83.048 304.021 82.92C303.701 82.76 303.301 82.664 302.821 82.632C302.341 82.568 301.733 82.536 300.997 82.536V80.904L310.261 79.08L310.885 83.304H311.077C312.133 81.96 313.381 80.92 314.821 80.184C316.261 79.448 317.845 79.08 319.573 79.08C321.621 79.08 323.269 79.368 324.517 79.944C325.797 80.488 326.933 81.416 327.925 82.728C328.469 83.464 328.949 84.424 329.365 85.608C329.781 86.76 329.989 88.36 329.989 90.408V97.176C329.989 98.488 330.021 99.528 330.085 100.296C330.181 101.032 330.357 101.608 330.613 102.024C330.901 102.408 331.317 102.664 331.861 102.792C332.405 102.92 333.141 103.016 334.069 103.08V105H319.045V103.08C320.005 103.048 320.757 102.968 321.301 102.84C321.877 102.68 322.309 102.408 322.597 102.024C322.885 101.64 323.077 101.096 323.173 100.392C323.269 99.656 323.317 98.696 323.317 97.512V90.984C323.317 89.352 323.221 87.976 323.029 86.856C322.837 85.736 322.517 84.84 322.069 84.168C321.653 83.464 321.093 82.968 320.389 82.68C319.685 82.36 318.805 82.2 317.749 82.2C316.725 82.2 315.845 82.488 315.109 83.064C314.373 83.64 313.733 84.44 313.189 85.464C312.901 86.04 312.645 86.792 312.421 87.72C312.229 88.616 312.133 89.56 312.133 90.552V97.176Z" fill="#FFC428"/>
</svg>
