<svg width="113" height="98" viewBox="0 0 113 98" fill="none" xmlns="http://www.w3.org/2000/svg">
<path d="M56.5 15.2145C56.5 15.2145 30.25 -7.29528 4 11.4628V93.9985C30.25 75.2404 56.5 93.9985 56.5 93.9985M56.5 15.2145C56.5 15.2145 82.75 -7.29528 109 11.4628V93.9985C82.75 75.2404 56.5 93.9985 56.5 93.9985M56.5 15.2145V93.9985" stroke="#D6B30E" stroke-width="8" stroke-linecap="round" stroke-linejoin="round"/>
<path d="M46.6 41.9985H44.88C44.8 40.6919 44.6 39.6119 44.28 38.7585C43.9867 37.8785 43.56 37.1852 43 36.6785C42.44 36.1452 41.76 35.7852 40.96 35.5985C40.16 35.3852 39.2267 35.2785 38.16 35.2785C37.12 35.2785 36.28 35.3052 35.64 35.3585C35.0267 35.3852 34.5467 35.4519 34.2 35.5585C33.88 35.6385 33.6667 35.7585 33.56 35.9185C33.4533 36.0785 33.4 36.2785 33.4 36.5185V57.4785C33.4 58.3319 33.4533 59.0652 33.56 59.6785C33.6933 60.2919 33.9467 60.7985 34.32 61.1985C34.6933 61.5719 35.24 61.8652 35.96 62.0785C36.68 62.2652 37.6267 62.3719 38.8 62.3985V63.9985H22.04V62.3985C23.24 62.3719 24.2 62.2652 24.92 62.0785C25.64 61.8652 26.1867 61.5719 26.56 61.1985C26.96 60.7985 27.2133 60.2919 27.32 59.6785C27.4533 59.0652 27.52 58.3319 27.52 57.4785V36.5185C27.52 36.2785 27.4667 36.0785 27.36 35.9185C27.28 35.7585 27.0933 35.6385 26.8 35.5585C26.5067 35.4519 26.08 35.3852 25.52 35.3585C24.9867 35.3052 24.28 35.2785 23.4 35.2785C22.44 35.2785 21.52 35.3319 20.64 35.4385C19.76 35.5185 18.9867 35.7852 18.32 36.2385C17.6533 36.6652 17.1067 37.3319 16.68 38.2385C16.28 39.1185 16.0667 40.3719 16.04 41.9985H14.48L14.88 33.1985H46.2L46.6 41.9985Z" fill="#FFC428"/>
<path d="M67.32 63.9985V62.3985C68.2267 62.3719 68.9467 62.2919 69.48 62.1585C70.04 62.0252 70.4667 61.7985 70.76 61.4785C71.08 61.1585 71.2933 60.7052 71.4 60.1185C71.5067 59.5319 71.56 58.7719 71.56 57.8385V39.3585C71.56 38.4252 71.52 37.6785 71.44 37.1185C71.36 36.5319 71.1867 36.0785 70.92 35.7585C70.68 35.4119 70.3333 35.1852 69.88 35.0785C69.4533 34.9452 68.88 34.8519 68.16 34.7985V33.1985H81C85.0267 33.1985 88.12 33.8519 90.28 35.1585C92.4667 36.4385 93.56 38.2785 93.56 40.6785C93.56 43.8519 91.28 46.0919 86.72 47.3985V47.5585C88.1867 47.5585 89.5067 47.7719 90.68 48.1985C91.88 48.5985 92.8933 49.1719 93.72 49.9185C94.5467 50.6652 95.1867 51.5452 95.64 52.5585C96.0933 53.5719 96.32 54.6785 96.32 55.8785C96.32 57.2385 95.9867 58.4252 95.32 59.4385C94.68 60.4519 93.7467 61.3052 92.52 61.9985C90.1467 63.3319 86.88 63.9985 82.72 63.9985H67.32ZM83 61.5585C87.2933 61.5585 89.44 59.6252 89.44 55.7585C89.44 53.3852 88.6667 51.6519 87.12 50.5585C86.32 49.9985 85.28 49.5985 84 49.3585C82.7467 49.1185 81.2 48.9985 79.36 48.9985H77.44V56.9985C77.44 58.6519 77.8667 59.8252 78.72 60.5185C79.5733 61.2119 81 61.5585 83 61.5585ZM79.8 46.5985C81 46.5985 82.04 46.4919 82.92 46.2785C83.8 46.0385 84.5467 45.7052 85.16 45.2785C86.44 44.3985 87.08 43.0252 87.08 41.1585C87.08 39.2119 86.6 37.8119 85.64 36.9585C84.68 36.0785 83.1333 35.6385 81 35.6385H78.16C77.68 35.6385 77.44 35.8652 77.44 36.3185V46.5985H79.8Z" fill="#FFC428"/>
</svg>
