<svg width="570" height="164" viewBox="0 0 570 164" fill="none" xmlns="http://www.w3.org/2000/svg">
<path d="M82.5 48.2159C82.5 48.2159 56.25 25.7062 30 44.4643V127C56.25 108.242 82.5 127 82.5 127M82.5 48.2159C82.5 48.2159 108.75 25.7062 135 44.4643V127C108.75 108.242 82.5 127 82.5 127M82.5 48.2159V127" stroke="#D6B30E" stroke-width="8" stroke-linecap="round" stroke-linejoin="round"/>
<path d="M72.6 75H70.88C70.8 73.6933 70.6 72.6133 70.28 71.76C69.9867 70.88 69.56 70.1867 69 69.68C68.44 69.1467 67.76 68.7867 66.96 68.6C66.16 68.3867 65.2267 68.28 64.16 68.28C63.12 68.28 62.28 68.3067 61.64 68.36C61.0267 68.3867 60.5467 68.4533 60.2 68.56C59.88 68.64 59.6667 68.76 59.56 68.92C59.4533 69.08 59.4 69.28 59.4 69.52V90.48C59.4 91.3333 59.4533 92.0667 59.56 92.68C59.6933 93.2933 59.9467 93.8 60.32 94.2C60.6933 94.5733 61.24 94.8667 61.96 95.08C62.68 95.2667 63.6267 95.3733 64.8 95.4V97H48.04V95.4C49.24 95.3733 50.2 95.2667 50.92 95.08C51.64 94.8667 52.1867 94.5733 52.56 94.2C52.96 93.8 53.2133 93.2933 53.32 92.68C53.4533 92.0667 53.52 91.3333 53.52 90.48V69.52C53.52 69.28 53.4667 69.08 53.36 68.92C53.28 68.76 53.0933 68.64 52.8 68.56C52.5067 68.4533 52.08 68.3867 51.52 68.36C50.9867 68.3067 50.28 68.28 49.4 68.28C48.44 68.28 47.52 68.3333 46.64 68.44C45.76 68.52 44.9867 68.7867 44.32 69.24C43.6533 69.6667 43.1067 70.3333 42.68 71.24C42.28 72.12 42.0667 73.3733 42.04 75H40.48L40.88 66.2H72.2L72.6 75Z" fill="#FFC428"/>
<path d="M93.32 97V95.4C94.2267 95.3733 94.9467 95.2933 95.48 95.16C96.04 95.0267 96.4667 94.8 96.76 94.48C97.08 94.16 97.2933 93.7067 97.4 93.12C97.5067 92.5333 97.56 91.7733 97.56 90.84V72.36C97.56 71.4267 97.52 70.68 97.44 70.12C97.36 69.5333 97.1867 69.08 96.92 68.76C96.68 68.4133 96.3333 68.1867 95.88 68.08C95.4533 67.9467 94.88 67.8533 94.16 67.8V66.2H107C111.027 66.2 114.12 66.8533 116.28 68.16C118.467 69.44 119.56 71.28 119.56 73.68C119.56 76.8533 117.28 79.0933 112.72 80.4V80.56C114.187 80.56 115.507 80.7733 116.68 81.2C117.88 81.6 118.893 82.1733 119.72 82.92C120.547 83.6667 121.187 84.5467 121.64 85.56C122.093 86.5733 122.32 87.68 122.32 88.88C122.32 90.24 121.987 91.4267 121.32 92.44C120.68 93.4533 119.747 94.3067 118.52 95C116.147 96.3333 112.88 97 108.72 97H93.32ZM109 94.56C113.293 94.56 115.44 92.6267 115.44 88.76C115.44 86.3867 114.667 84.6533 113.12 83.56C112.32 83 111.28 82.6 110 82.36C108.747 82.12 107.2 82 105.36 82H103.44V90C103.44 91.6533 103.867 92.8267 104.72 93.52C105.573 94.2133 107 94.56 109 94.56ZM105.8 79.6C107 79.6 108.04 79.4933 108.92 79.28C109.8 79.04 110.547 78.7067 111.16 78.28C112.44 77.4 113.08 76.0267 113.08 74.16C113.08 72.2133 112.6 70.8133 111.64 69.96C110.68 69.08 109.133 68.64 107 68.64H104.16C103.68 68.64 103.44 68.8667 103.44 69.32V79.6H105.8Z" fill="#FFC428"/>
<path d="M160.592 92.76H162.464C162.912 95.8 164.128 98.2 166.112 99.96C168.096 101.688 170.544 102.552 173.456 102.552C174.64 102.552 175.728 102.408 176.72 102.12C177.712 101.832 178.56 101.432 179.264 100.92C179.968 100.376 180.512 99.752 180.896 99.048C181.28 98.312 181.472 97.496 181.472 96.6C181.472 95.832 181.344 95.176 181.088 94.632C180.864 94.056 180.416 93.512 179.744 93C179.072 92.456 178.144 91.912 176.96 91.368C175.808 90.824 174.304 90.2 172.448 89.496C168.704 88.056 165.936 86.392 164.144 84.504C162.352 82.584 161.456 80.328 161.456 77.736C161.456 76.232 161.744 74.856 162.32 73.608C162.896 72.36 163.696 71.288 164.72 70.392C165.776 69.496 167.024 68.808 168.464 68.328C169.936 67.816 171.552 67.56 173.312 67.56C174.944 67.56 176.48 67.816 177.92 68.328C179.36 68.84 180.784 69.608 182.192 70.632L183.056 68.232H184.208L184.736 78.6H182.864C182.096 75.976 180.896 73.976 179.264 72.6C177.632 71.192 175.744 70.488 173.6 70.488C171.616 70.488 170 70.984 168.752 71.976C167.536 72.936 166.928 74.184 166.928 75.72C166.928 76.392 167.04 77 167.264 77.544C167.488 78.056 167.904 78.552 168.512 79.032C169.12 79.512 169.952 80.008 171.008 80.52C172.064 81 173.424 81.544 175.088 82.152C177.328 83.016 179.232 83.896 180.8 84.792C182.4 85.656 183.696 86.6 184.688 87.624C185.712 88.616 186.464 89.672 186.944 90.792C187.424 91.912 187.664 93.144 187.664 94.488C187.664 96.12 187.312 97.608 186.608 98.952C185.904 100.296 184.912 101.448 183.632 102.408C182.384 103.368 180.88 104.12 179.12 104.664C177.392 105.208 175.472 105.48 173.36 105.48C171.44 105.48 169.712 105.224 168.176 104.712C166.64 104.168 165.056 103.304 163.424 102.12L162.464 105H161.312L160.592 92.76ZM202.212 97.08C202.212 98.424 202.244 99.48 202.308 100.248C202.372 101.016 202.548 101.608 202.836 102.024C203.124 102.408 203.54 102.664 204.084 102.792C204.628 102.92 205.38 103.016 206.34 103.08V105H191.172V103.08C192.132 103.016 192.9 102.92 193.476 102.792C194.052 102.664 194.484 102.408 194.772 102.024C195.06 101.64 195.252 101.096 195.348 100.392C195.444 99.656 195.492 98.68 195.492 97.464V91.512C195.492 89.688 195.46 88.168 195.396 86.952C195.364 85.736 195.284 84.904 195.156 84.456C195.06 84.04 194.932 83.72 194.772 83.496C194.644 83.24 194.42 83.048 194.1 82.92C193.812 82.76 193.428 82.664 192.948 82.632C192.468 82.568 191.844 82.536 191.076 82.536V80.904L200.34 79.08L200.916 83.256H201.204C202.548 81.752 203.892 80.68 205.236 80.04C206.612 79.4 208.196 79.08 209.988 79.08C212.1 79.08 213.844 79.448 215.22 80.184C216.596 80.92 217.636 81.976 218.34 83.352H218.532C219.684 82.008 221.06 80.968 222.66 80.232C224.26 79.464 225.972 79.08 227.796 79.08C229.716 79.08 231.38 79.32 232.788 79.8C234.228 80.28 235.348 80.968 236.148 81.864C236.788 82.6 237.252 83.56 237.54 84.744C237.86 85.928 238.02 87.576 238.02 89.688V97.08C238.02 98.392 238.052 99.432 238.116 100.2C238.212 100.968 238.404 101.56 238.692 101.976C238.98 102.392 239.396 102.664 239.94 102.792C240.484 102.92 241.236 103.016 242.196 103.08V105H227.028V103.08C227.988 103.048 228.74 102.968 229.284 102.84C229.86 102.68 230.292 102.408 230.58 102.024C230.9 101.608 231.092 101.048 231.156 100.344C231.252 99.64 231.3 98.68 231.3 97.464V91.176C231.3 89.512 231.204 88.104 231.012 86.952C230.82 85.8 230.516 84.872 230.1 84.168C229.684 83.464 229.124 82.968 228.42 82.68C227.748 82.36 226.916 82.2 225.924 82.2C224.804 82.2 223.876 82.472 223.14 83.016C222.436 83.56 221.844 84.264 221.364 85.128C220.532 86.632 220.116 88.504 220.116 90.744V97.08C220.116 98.392 220.148 99.432 220.212 100.2C220.276 100.968 220.452 101.56 220.74 101.976C221.028 102.392 221.444 102.664 221.988 102.792C222.564 102.92 223.348 103.016 224.34 103.08V105H209.124V103.08C210.084 103.016 210.836 102.92 211.38 102.792C211.956 102.664 212.388 102.408 212.676 102.024C212.996 101.64 213.188 101.096 213.252 100.392C213.348 99.656 213.396 98.68 213.396 97.464V91.176C213.396 89.512 213.3 88.104 213.108 86.952C212.916 85.8 212.596 84.872 212.148 84.168C211.732 83.464 211.172 82.968 210.468 82.68C209.764 82.36 208.884 82.2 207.828 82.2C206.772 82.2 205.892 82.456 205.188 82.968C204.516 83.48 203.956 84.168 203.508 85.032C203.092 85.8 202.772 86.68 202.548 87.672C202.324 88.664 202.212 89.688 202.212 90.744V97.08ZM259.45 91.32C256.762 92.536 254.73 93.672 253.354 94.728C252.01 95.752 251.338 96.824 251.338 97.944C251.338 98.872 251.594 99.608 252.106 100.152C252.618 100.696 253.258 100.968 254.026 100.968C254.794 100.968 255.514 100.84 256.186 100.584C256.858 100.296 257.434 99.928 257.914 99.48C258.394 99.032 258.762 98.504 259.018 97.896C259.306 97.256 259.45 96.584 259.45 95.88V91.32ZM259.45 88.776V86.76C259.45 84.904 259.114 83.56 258.442 82.728C257.802 81.864 256.794 81.432 255.418 81.432C254.49 81.432 253.786 81.688 253.306 82.2C252.826 82.68 252.378 83.496 251.962 84.648C251.674 85.448 251.258 86.072 250.714 86.52C250.202 86.968 249.482 87.192 248.554 87.192C247.658 87.192 246.97 86.92 246.49 86.376C246.01 85.832 245.77 85.064 245.77 84.072C245.77 82.536 246.602 81.32 248.266 80.424C249.962 79.528 252.506 79.08 255.898 79.08C259.482 79.08 262.042 79.736 263.578 81.048C265.114 82.328 265.882 84.488 265.882 87.528V98.04C265.882 100.76 266.426 102.12 267.514 102.12C268.122 102.12 268.682 101.912 269.194 101.496L269.914 102.888C269.466 103.688 268.762 104.328 267.802 104.808C266.874 105.256 265.818 105.48 264.634 105.48C263.162 105.48 262.042 105.032 261.274 104.136C260.506 103.24 260.122 101.976 260.122 100.344H259.882C258.954 102.008 257.754 103.272 256.282 104.136C254.81 105 253.13 105.432 251.242 105.432C249.226 105.432 247.61 104.872 246.394 103.752C245.178 102.6 244.57 101.112 244.57 99.288C244.57 97.88 245.194 96.568 246.442 95.352C247.69 94.104 249.77 92.888 252.682 91.704L259.45 88.776ZM282.884 97.56C282.884 98.808 282.932 99.8 283.028 100.536C283.156 101.24 283.396 101.784 283.748 102.168C284.1 102.552 284.612 102.808 285.284 102.936C285.956 103.032 286.852 103.08 287.972 103.08V105H271.94V103.08C272.9 103.016 273.668 102.92 274.244 102.792C274.82 102.664 275.252 102.408 275.54 102.024C275.828 101.64 276.004 101.096 276.068 100.392C276.164 99.656 276.212 98.68 276.212 97.464V91.608C276.212 89.624 276.164 88.04 276.068 86.856C275.972 85.672 275.764 84.76 275.444 84.12C275.124 83.48 274.66 83.064 274.052 82.872C273.476 82.648 272.708 82.536 271.748 82.536V80.856L281.348 79.08L282.116 84.6H282.308C283.172 82.904 284.308 81.56 285.716 80.568C287.124 79.576 288.612 79.08 290.18 79.08C291.396 79.08 292.388 79.384 293.156 79.992C293.924 80.6 294.308 81.368 294.308 82.296C294.308 83.32 294.004 84.184 293.396 84.888C292.82 85.592 292.02 85.944 290.996 85.944C290.516 85.944 290.084 85.848 289.7 85.656C289.316 85.464 288.964 85.256 288.644 85.032C288.356 84.776 288.052 84.552 287.732 84.36C287.444 84.136 287.14 84.024 286.82 84.024C286.212 84.024 285.636 84.424 285.092 85.224C284.548 86.024 284.1 87.096 283.748 88.44C283.492 89.4 283.284 90.488 283.124 91.704C282.964 92.888 282.884 94.072 282.884 95.256V97.56ZM295.606 82.2V80.04C297.526 79.496 299.126 78.68 300.406 77.592C301.718 76.472 302.694 75.192 303.334 73.752H305.782V79.56H311.302V82.2H305.782V96.936C305.782 98.92 305.99 100.328 306.406 101.16C306.854 101.992 307.59 102.408 308.614 102.408C309.862 102.408 310.806 101.832 311.446 100.68L312.454 102.072C311.558 104.344 309.446 105.48 306.118 105.48C303.91 105.48 302.182 104.968 300.934 103.944C299.718 102.92 299.11 101.48 299.11 99.624V82.2H295.606ZM347.486 105H314.414V103.08C315.47 103.048 316.334 102.952 317.006 102.792C317.678 102.632 318.19 102.36 318.542 101.976C318.894 101.592 319.134 101.048 319.262 100.344C319.39 99.64 319.454 98.728 319.454 97.608V75.432C319.454 74.312 319.39 73.416 319.262 72.744C319.166 72.04 318.958 71.496 318.638 71.112C318.318 70.696 317.854 70.424 317.246 70.296C316.67 70.136 315.902 70.024 314.942 69.96V68.04H331.502V69.96C330.414 69.992 329.534 70.088 328.862 70.248C328.222 70.408 327.726 70.696 327.374 71.112C327.022 71.528 326.782 72.104 326.654 72.84C326.558 73.576 326.51 74.552 326.51 75.768V95.88C326.51 97.224 326.638 98.328 326.894 99.192C327.182 100.024 327.662 100.68 328.334 101.16C329.006 101.608 329.902 101.928 331.022 102.12C332.142 102.28 333.534 102.36 335.198 102.36C337.054 102.36 338.606 102.248 339.854 102.024C341.102 101.8 342.142 101.384 342.974 100.776C343.838 100.136 344.526 99.288 345.038 98.232C345.55 97.176 345.982 95.8 346.334 94.104H348.254L347.486 105ZM361.305 97.128C361.305 98.408 361.353 99.432 361.449 100.2C361.545 100.968 361.737 101.56 362.025 101.976C362.313 102.392 362.729 102.68 363.273 102.84C363.817 102.968 364.553 103.048 365.481 103.08V105H350.361V103.08C351.257 103.048 351.977 102.952 352.521 102.792C353.097 102.6 353.529 102.312 353.817 101.928C354.137 101.512 354.345 100.952 354.441 100.248C354.569 99.512 354.633 98.584 354.633 97.464V91.56C354.633 89.704 354.601 88.184 354.537 87C354.473 85.784 354.393 84.952 354.297 84.504C354.137 83.704 353.769 83.176 353.193 82.92C352.649 82.664 351.641 82.536 350.169 82.536V80.904L361.305 79.08V97.128ZM354.249 68.904C354.249 67.848 354.601 66.968 355.305 66.264C356.041 65.528 356.921 65.16 357.945 65.16C359.001 65.16 359.881 65.528 360.585 66.264C361.321 66.968 361.689 67.848 361.689 68.904C361.689 69.928 361.321 70.808 360.585 71.544C359.881 72.248 359.001 72.6 357.945 72.6C356.921 72.6 356.041 72.248 355.305 71.544C354.601 70.808 354.249 69.928 354.249 68.904ZM377.113 94.488C377.113 95.672 377.273 96.776 377.593 97.8C377.945 98.792 378.409 99.656 378.984 100.392C379.561 101.128 380.249 101.704 381.049 102.12C381.849 102.536 382.729 102.744 383.689 102.744C385.609 102.744 387.065 101.864 388.057 100.104C389.049 98.344 389.545 95.752 389.545 92.328C389.545 89 389.049 86.472 388.057 84.744C387.097 82.984 385.641 82.104 383.689 82.104C382.537 82.104 381.465 82.424 380.473 83.064C379.513 83.672 378.761 84.536 378.217 85.656C377.481 87.192 377.113 89.128 377.113 91.464V94.488ZM377.017 82.872H377.209C378.041 81.656 379.113 80.728 380.424 80.088C381.737 79.416 383.225 79.08 384.889 79.08C386.585 79.08 388.153 79.432 389.593 80.136C391.065 80.808 392.329 81.736 393.385 82.92C394.473 84.104 395.321 85.496 395.929 87.096C396.537 88.696 396.841 90.408 396.841 92.232C396.841 94.152 396.505 95.928 395.833 97.56C395.193 99.16 394.297 100.552 393.145 101.736C392.025 102.92 390.697 103.848 389.161 104.52C387.657 105.192 386.057 105.528 384.361 105.528C382.601 105.528 380.937 105.192 379.369 104.52C377.833 103.816 376.601 102.904 375.673 101.784L372.025 105H370.393V76.44C370.393 73.432 370.185 71.368 369.769 70.248C369.673 70.024 369.561 69.832 369.433 69.672C369.305 69.512 369.113 69.384 368.857 69.288C368.633 69.16 368.313 69.064 367.896 69C367.481 68.904 366.937 68.808 366.264 68.712V67.08L377.017 65.16V82.872ZM411.04 97.56C411.04 98.808 411.088 99.8 411.184 100.536C411.312 101.24 411.552 101.784 411.904 102.168C412.256 102.552 412.768 102.808 413.44 102.936C414.112 103.032 415.008 103.08 416.128 103.08V105H400.096V103.08C401.056 103.016 401.824 102.92 402.4 102.792C402.976 102.664 403.408 102.408 403.696 102.024C403.984 101.64 404.16 101.096 404.224 100.392C404.32 99.656 404.368 98.68 404.368 97.464V91.608C404.368 89.624 404.32 88.04 404.224 86.856C404.128 85.672 403.92 84.76 403.6 84.12C403.28 83.48 402.816 83.064 402.208 82.872C401.632 82.648 400.864 82.536 399.904 82.536V80.856L409.504 79.08L410.272 84.6H410.464C411.328 82.904 412.464 81.56 413.872 80.568C415.28 79.576 416.768 79.08 418.336 79.08C419.552 79.08 420.544 79.384 421.312 79.992C422.08 80.6 422.464 81.368 422.464 82.296C422.464 83.32 422.16 84.184 421.552 84.888C420.976 85.592 420.176 85.944 419.152 85.944C418.672 85.944 418.24 85.848 417.856 85.656C417.472 85.464 417.12 85.256 416.8 85.032C416.512 84.776 416.208 84.552 415.888 84.36C415.6 84.136 415.296 84.024 414.976 84.024C414.368 84.024 413.792 84.424 413.248 85.224C412.704 86.024 412.256 87.096 411.904 88.44C411.648 89.4 411.44 90.488 411.28 91.704C411.12 92.888 411.04 94.072 411.04 95.256V97.56ZM439.075 91.32C436.387 92.536 434.355 93.672 432.979 94.728C431.635 95.752 430.963 96.824 430.963 97.944C430.963 98.872 431.219 99.608 431.731 100.152C432.243 100.696 432.883 100.968 433.651 100.968C434.419 100.968 435.139 100.84 435.811 100.584C436.483 100.296 437.059 99.928 437.539 99.48C438.019 99.032 438.387 98.504 438.643 97.896C438.931 97.256 439.075 96.584 439.075 95.88V91.32ZM439.075 88.776V86.76C439.075 84.904 438.739 83.56 438.067 82.728C437.427 81.864 436.419 81.432 435.043 81.432C434.115 81.432 433.411 81.688 432.931 82.2C432.451 82.68 432.003 83.496 431.587 84.648C431.299 85.448 430.883 86.072 430.339 86.52C429.827 86.968 429.107 87.192 428.179 87.192C427.283 87.192 426.595 86.92 426.115 86.376C425.635 85.832 425.395 85.064 425.395 84.072C425.395 82.536 426.227 81.32 427.891 80.424C429.587 79.528 432.131 79.08 435.523 79.08C439.107 79.08 441.667 79.736 443.203 81.048C444.739 82.328 445.507 84.488 445.507 87.528V98.04C445.507 100.76 446.051 102.12 447.139 102.12C447.747 102.12 448.307 101.912 448.819 101.496L449.539 102.888C449.091 103.688 448.387 104.328 447.427 104.808C446.499 105.256 445.443 105.48 444.259 105.48C442.787 105.48 441.667 105.032 440.899 104.136C440.131 103.24 439.747 101.976 439.747 100.344H439.507C438.579 102.008 437.379 103.272 435.907 104.136C434.435 105 432.755 105.432 430.867 105.432C428.851 105.432 427.235 104.872 426.019 103.752C424.803 102.6 424.195 101.112 424.195 99.288C424.195 97.88 424.819 96.568 426.067 95.352C427.315 94.104 429.395 92.888 432.307 91.704L439.075 88.776ZM462.509 97.56C462.509 98.808 462.557 99.8 462.653 100.536C462.781 101.24 463.021 101.784 463.373 102.168C463.725 102.552 464.237 102.808 464.909 102.936C465.581 103.032 466.477 103.08 467.597 103.08V105H451.565V103.08C452.525 103.016 453.293 102.92 453.869 102.792C454.445 102.664 454.877 102.408 455.165 102.024C455.453 101.64 455.629 101.096 455.693 100.392C455.789 99.656 455.837 98.68 455.837 97.464V91.608C455.837 89.624 455.789 88.04 455.693 86.856C455.597 85.672 455.389 84.76 455.069 84.12C454.749 83.48 454.285 83.064 453.677 82.872C453.101 82.648 452.333 82.536 451.373 82.536V80.856L460.973 79.08L461.741 84.6H461.933C462.797 82.904 463.933 81.56 465.341 80.568C466.749 79.576 468.237 79.08 469.805 79.08C471.021 79.08 472.013 79.384 472.781 79.992C473.549 80.6 473.933 81.368 473.933 82.296C473.933 83.32 473.629 84.184 473.021 84.888C472.445 85.592 471.645 85.944 470.621 85.944C470.141 85.944 469.709 85.848 469.325 85.656C468.941 85.464 468.589 85.256 468.269 85.032C467.981 84.776 467.677 84.552 467.357 84.36C467.069 84.136 466.765 84.024 466.445 84.024C465.837 84.024 465.261 84.424 464.717 85.224C464.173 86.024 463.725 87.096 463.373 88.44C463.117 89.4 462.909 90.488 462.749 91.704C462.589 92.888 462.509 94.072 462.509 95.256V97.56ZM487.807 112.536C487.455 113.24 487.007 113.896 486.463 114.504C485.951 115.112 485.359 115.624 484.687 116.04C484.047 116.488 483.375 116.84 482.671 117.096C481.967 117.352 481.263 117.48 480.559 117.48C479.503 117.48 478.655 117.224 478.015 116.712C477.375 116.2 477.055 115.512 477.055 114.648C477.055 113.848 477.327 113.224 477.871 112.776C478.447 112.328 479.359 112.056 480.607 111.96C483.455 111.736 485.295 110.84 486.127 109.272L487.423 106.776L478.927 85.752C478.543 84.824 478.207 84.088 477.919 83.544C477.663 83 477.375 82.584 477.055 82.296C476.735 81.976 476.367 81.768 475.951 81.672C475.535 81.576 475.023 81.512 474.415 81.48V79.56H488.959V81.48C487.711 81.48 486.831 81.608 486.319 81.864C485.839 82.088 485.599 82.52 485.599 83.16C485.599 83.416 485.631 83.72 485.695 84.072C485.791 84.392 485.903 84.728 486.031 85.08L490.927 99.096H491.119L495.247 89.736C495.663 88.744 496.015 87.928 496.303 87.288C496.591 86.616 496.799 86.056 496.927 85.608C497.087 85.128 497.199 84.744 497.263 84.456C497.327 84.168 497.359 83.88 497.359 83.592C497.359 82.76 497.119 82.2 496.639 81.912C496.191 81.624 495.263 81.48 493.855 81.48V79.56H505.423V81.48C504.783 81.48 504.239 81.576 503.791 81.768C503.343 81.928 502.879 82.28 502.399 82.824C501.951 83.368 501.439 84.184 500.863 85.272C500.319 86.328 499.631 87.736 498.799 89.496L487.807 112.536Z" fill="#FFC428"/>
</svg>
